<?xml version="1.0" encoding="UTF-8" standalone="no"?>
<!DOCTYPE svg PUBLIC "-//W3C//DTD SVG 1.1//EN" "http://www.w3.org/Graphics/SVG/1.1/DTD/svg11.dtd">
<svg width="100%" height="100%" viewBox="0 0 822 822" version="1.1" xmlns="http://www.w3.org/2000/svg" xmlns:xlink="http://www.w3.org/1999/xlink" xml:space="preserve" xmlns:serif="http://www.serif.com/" style="fill-rule:evenodd;clip-rule:evenodd;stroke-linejoin:round;stroke-miterlimit:2;">
    <g transform="matrix(1,0,0,1,-403.041,-229.522)">
        <path d="M1224.25,274.437C1224.25,249.631 1204.14,229.522 1179.33,229.522L447.957,229.522C423.151,229.522 403.041,249.631 403.041,274.437L403.041,1005.81C403.041,1030.62 423.151,1050.73 447.957,1050.73L1179.33,1050.73C1204.14,1050.73 1224.25,1030.62 1224.25,1005.81L1224.25,274.437ZM1179.33,274.437L447.957,274.437L447.957,1005.81L1179.33,1005.81L1179.33,274.437Z" style="fill:rgb(64,64,64);"/>
        <g transform="matrix(1.2476,0,0,0.979661,-200.062,-26.942)">
            <g transform="matrix(387.5,0,0,530.627,625.469,878.841)">
                <path d="M0.344,-0.721C0.361,-0.721 0.376,-0.717 0.389,-0.709C0.402,-0.701 0.413,-0.685 0.422,-0.662L0.647,-0.082C0.654,-0.063 0.654,-0.046 0.647,-0.032C0.64,-0.018 0.628,-0.008 0.611,-0.003C0.594,0.002 0.578,0.003 0.562,-0.001C0.545,-0.005 0.533,-0.018 0.526,-0.039L0.468,-0.199L0.216,-0.199L0.157,-0.035C0.15,-0.016 0.139,-0.004 0.124,-0.001C0.109,0.003 0.093,0.002 0.077,-0.003C0.061,-0.008 0.049,-0.017 0.042,-0.03C0.035,-0.043 0.035,-0.058 0.042,-0.077L0.267,-0.662C0.276,-0.685 0.286,-0.701 0.3,-0.709C0.313,-0.717 0.327,-0.721 0.344,-0.721ZM0.342,-0.561C0.337,-0.541 0.332,-0.523 0.327,-0.507C0.322,-0.492 0.315,-0.473 0.307,-0.45L0.254,-0.305L0.43,-0.305L0.378,-0.45C0.369,-0.473 0.363,-0.493 0.358,-0.51C0.353,-0.527 0.347,-0.544 0.342,-0.561Z" style="fill:rgb(64,64,64);fill-rule:nonzero;"/>
            </g>
            <g transform="matrix(387.5,0,0,530.627,888.969,878.841)">
                <path d="M0.141,-0.541C0.158,-0.541 0.172,-0.537 0.185,-0.528C0.198,-0.519 0.204,-0.506 0.204,-0.488L0.204,-0.051C0.204,-0.033 0.198,-0.02 0.185,-0.011C0.172,-0.002 0.158,0.002 0.141,0.002C0.125,0.002 0.111,-0.002 0.098,-0.011C0.085,-0.02 0.078,-0.033 0.078,-0.051L0.078,-0.488C0.078,-0.506 0.085,-0.519 0.098,-0.528C0.111,-0.537 0.125,-0.541 0.141,-0.541ZM0.141,-0.748C0.163,-0.748 0.182,-0.741 0.197,-0.726C0.212,-0.711 0.22,-0.693 0.22,-0.672C0.22,-0.651 0.212,-0.633 0.197,-0.618C0.182,-0.603 0.163,-0.596 0.141,-0.596C0.119,-0.596 0.1,-0.603 0.085,-0.618C0.07,-0.633 0.062,-0.651 0.062,-0.672C0.062,-0.693 0.07,-0.711 0.085,-0.726C0.1,-0.741 0.119,-0.748 0.141,-0.748Z" style="fill:rgb(64,64,64);fill-rule:nonzero;"/>
            </g>
        </g>
    </g>
</svg>
