<?xml version="1.0" encoding="UTF-8" standalone="no"?>
<!DOCTYPE svg PUBLIC "-//W3C//DTD SVG 1.1//EN" "http://www.w3.org/Graphics/SVG/1.1/DTD/svg11.dtd">
<svg width="100%" height="100%" viewBox="0 0 822 822" version="1.1" xmlns="http://www.w3.org/2000/svg" xmlns:xlink="http://www.w3.org/1999/xlink" xml:space="preserve" xmlns:serif="http://www.serif.com/" style="fill-rule:evenodd;clip-rule:evenodd;stroke-linejoin:round;stroke-miterlimit:2;">
    <g transform="matrix(1,0,0,1,-403.041,-261.418)">
        <g transform="matrix(1,0,0,1,0,31.8962)">
            <path d="M1224.25,274.437C1224.25,249.631 1204.14,229.522 1179.33,229.522L447.957,229.522C423.151,229.522 403.041,249.631 403.041,274.437L403.041,1005.81C403.041,1030.62 423.151,1050.73 447.957,1050.73L1179.33,1050.73C1204.14,1050.73 1224.25,1030.62 1224.25,1005.81L1224.25,274.437ZM1179.33,274.437L447.957,274.437L447.957,1005.81L1179.33,1005.81L1179.33,274.437Z" style="fill:rgb(64,64,64);"/>
        </g>
        <g transform="matrix(1.22523,0,0,1.17955,-181.068,-126.154)">
            <g transform="matrix(186.017,0,0,207.764,597.844,625.947)">
                <path d="M0.145,-0.721C0.162,-0.721 0.177,-0.717 0.19,-0.708C0.203,-0.699 0.209,-0.685 0.209,-0.666L0.209,-0.428L0.508,-0.428L0.508,-0.666C0.508,-0.685 0.514,-0.699 0.527,-0.708C0.54,-0.717 0.555,-0.721 0.572,-0.721C0.589,-0.721 0.604,-0.717 0.617,-0.708C0.63,-0.699 0.636,-0.685 0.636,-0.666L0.636,-0.053C0.636,-0.034 0.63,-0.02 0.617,-0.011C0.604,-0.002 0.589,0.002 0.572,0.002C0.555,0.002 0.54,-0.002 0.527,-0.011C0.514,-0.02 0.508,-0.034 0.508,-0.053L0.508,-0.322L0.209,-0.322L0.209,-0.053C0.209,-0.034 0.203,-0.02 0.19,-0.011C0.177,-0.002 0.162,0.002 0.145,0.002C0.128,0.002 0.113,-0.002 0.1,-0.011C0.087,-0.02 0.081,-0.034 0.081,-0.053L0.081,-0.666C0.081,-0.685 0.087,-0.699 0.1,-0.708C0.113,-0.717 0.128,-0.721 0.145,-0.721Z" style="fill:rgb(64,64,64);fill-rule:nonzero;"/>
            </g>
            <g transform="matrix(186.017,0,0,207.764,729.358,625.947)">
                <path d="M0.173,-0.682C0.19,-0.682 0.204,-0.678 0.217,-0.669C0.23,-0.66 0.236,-0.647 0.236,-0.628L0.236,-0.535L0.341,-0.535C0.356,-0.535 0.368,-0.53 0.375,-0.52C0.382,-0.509 0.385,-0.497 0.385,-0.483C0.385,-0.469 0.382,-0.457 0.375,-0.447C0.368,-0.436 0.356,-0.431 0.341,-0.431L0.236,-0.431L0.236,-0.167C0.236,-0.124 0.252,-0.103 0.285,-0.103C0.3,-0.103 0.316,-0.106 0.331,-0.111C0.342,-0.114 0.352,-0.114 0.363,-0.109C0.374,-0.104 0.382,-0.094 0.387,-0.078C0.392,-0.064 0.392,-0.051 0.388,-0.039C0.383,-0.027 0.375,-0.018 0.362,-0.013C0.35,-0.008 0.336,-0.004 0.321,-0.001C0.306,0.002 0.29,0.004 0.274,0.004C0.215,0.004 0.172,-0.011 0.148,-0.041C0.123,-0.07 0.11,-0.114 0.11,-0.173L0.11,-0.431L0.06,-0.431C0.045,-0.431 0.034,-0.436 0.027,-0.447C0.02,-0.457 0.016,-0.469 0.016,-0.483C0.016,-0.497 0.02,-0.509 0.027,-0.52C0.034,-0.53 0.045,-0.535 0.06,-0.535L0.11,-0.535L0.11,-0.628C0.11,-0.647 0.116,-0.66 0.129,-0.669C0.142,-0.678 0.156,-0.682 0.173,-0.682Z" style="fill:rgb(64,64,64);fill-rule:nonzero;"/>
            </g>
            <g transform="matrix(186.017,0,0,207.764,804.323,625.947)">
                <path d="M0.347,-0.547C0.381,-0.547 0.411,-0.539 0.439,-0.524C0.466,-0.509 0.484,-0.488 0.494,-0.463C0.513,-0.491 0.536,-0.512 0.563,-0.526C0.589,-0.54 0.623,-0.547 0.665,-0.547C0.69,-0.547 0.715,-0.543 0.738,-0.534C0.76,-0.525 0.781,-0.512 0.798,-0.495C0.815,-0.478 0.829,-0.456 0.84,-0.43C0.85,-0.404 0.855,-0.374 0.855,-0.339L0.855,-0.051C0.855,-0.033 0.849,-0.02 0.836,-0.011C0.823,-0.002 0.809,0.002 0.792,0.002C0.776,0.002 0.761,-0.002 0.749,-0.011C0.736,-0.02 0.729,-0.033 0.729,-0.051L0.729,-0.313C0.729,-0.338 0.726,-0.358 0.721,-0.374C0.716,-0.39 0.708,-0.403 0.699,-0.411C0.69,-0.421 0.679,-0.427 0.667,-0.43C0.655,-0.433 0.642,-0.435 0.629,-0.435C0.617,-0.435 0.605,-0.433 0.593,-0.43C0.58,-0.426 0.569,-0.42 0.56,-0.41C0.551,-0.402 0.543,-0.389 0.537,-0.374C0.531,-0.359 0.528,-0.34 0.528,-0.317L0.528,-0.051C0.528,-0.033 0.522,-0.02 0.509,-0.011C0.496,-0.002 0.482,0.002 0.465,0.002C0.449,0.002 0.435,-0.002 0.422,-0.011C0.408,-0.02 0.402,-0.033 0.402,-0.051L0.402,-0.315C0.402,-0.338 0.399,-0.358 0.394,-0.373C0.389,-0.388 0.382,-0.401 0.373,-0.41C0.364,-0.419 0.353,-0.426 0.341,-0.43C0.329,-0.433 0.316,-0.435 0.302,-0.435C0.272,-0.435 0.248,-0.426 0.229,-0.407C0.21,-0.388 0.201,-0.36 0.201,-0.322L0.201,-0.051C0.201,-0.033 0.195,-0.02 0.182,-0.011C0.169,-0.002 0.155,0.002 0.138,0.002C0.122,0.002 0.108,-0.002 0.095,-0.011C0.082,-0.02 0.075,-0.033 0.075,-0.051L0.075,-0.49C0.075,-0.507 0.081,-0.52 0.093,-0.529C0.105,-0.537 0.119,-0.541 0.134,-0.541C0.149,-0.541 0.163,-0.537 0.175,-0.529C0.188,-0.52 0.194,-0.507 0.194,-0.49L0.194,-0.462C0.209,-0.489 0.229,-0.51 0.255,-0.525C0.281,-0.54 0.312,-0.547 0.347,-0.547Z" style="fill:rgb(64,64,64);fill-rule:nonzero;"/>
            </g>
            <g transform="matrix(186.017,0,0,207.764,974.528,625.947)">
                <path d="M0.138,-0.746C0.155,-0.746 0.169,-0.742 0.182,-0.733C0.195,-0.724 0.201,-0.711 0.201,-0.692L0.201,-0.052C0.201,-0.033 0.195,-0.02 0.182,-0.011C0.169,-0.002 0.155,0.002 0.138,0.002C0.121,0.002 0.107,-0.002 0.094,-0.011C0.081,-0.02 0.075,-0.033 0.075,-0.052L0.075,-0.692C0.075,-0.711 0.081,-0.724 0.094,-0.733C0.107,-0.742 0.121,-0.746 0.138,-0.746Z" style="fill:rgb(64,64,64);fill-rule:nonzero;"/>
            </g>
            <g transform="matrix(253.013,0,0,282.593,733.422,890.878)">
                <path d="M0.483,-0.715C0.498,-0.715 0.51,-0.71 0.517,-0.699C0.524,-0.688 0.528,-0.676 0.528,-0.661C0.528,-0.646 0.524,-0.633 0.517,-0.623C0.51,-0.612 0.498,-0.607 0.483,-0.607L0.229,-0.607L0.221,-0.426C0.238,-0.436 0.257,-0.445 0.278,-0.452C0.299,-0.459 0.325,-0.463 0.355,-0.463C0.39,-0.463 0.42,-0.457 0.447,-0.445C0.474,-0.433 0.496,-0.417 0.515,-0.397C0.533,-0.376 0.547,-0.353 0.556,-0.326C0.565,-0.299 0.57,-0.272 0.57,-0.243L0.57,-0.233C0.57,-0.204 0.565,-0.176 0.556,-0.147C0.546,-0.118 0.531,-0.093 0.509,-0.07C0.489,-0.047 0.462,-0.029 0.43,-0.015C0.397,0 0.358,0.007 0.312,0.007C0.265,0.007 0.224,0.002 0.189,-0.007C0.154,-0.016 0.123,-0.029 0.096,-0.046C0.081,-0.056 0.072,-0.069 0.07,-0.085C0.067,-0.1 0.07,-0.115 0.079,-0.129C0.088,-0.144 0.1,-0.154 0.113,-0.157C0.126,-0.16 0.141,-0.157 0.156,-0.148C0.177,-0.135 0.2,-0.126 0.224,-0.119C0.247,-0.112 0.276,-0.109 0.311,-0.109C0.355,-0.109 0.388,-0.121 0.409,-0.143C0.43,-0.167 0.441,-0.197 0.441,-0.234L0.441,-0.24C0.441,-0.279 0.43,-0.308 0.407,-0.329C0.385,-0.35 0.354,-0.36 0.314,-0.36C0.291,-0.36 0.269,-0.356 0.249,-0.349C0.229,-0.342 0.211,-0.332 0.196,-0.319C0.186,-0.311 0.178,-0.305 0.171,-0.302C0.164,-0.299 0.154,-0.297 0.143,-0.297C0.128,-0.297 0.115,-0.301 0.106,-0.309C0.097,-0.316 0.092,-0.327 0.093,-0.34L0.109,-0.628C0.11,-0.645 0.112,-0.66 0.115,-0.671C0.117,-0.682 0.122,-0.691 0.129,-0.698C0.135,-0.704 0.143,-0.708 0.154,-0.711C0.165,-0.714 0.178,-0.715 0.194,-0.715L0.483,-0.715Z" style="fill:rgb(64,64,64);fill-rule:nonzero;"/>
            </g>
        </g>
    </g>
</svg>
