<?xml version="1.0" encoding="UTF-8" standalone="no"?>
<!DOCTYPE svg PUBLIC "-//W3C//DTD SVG 1.1//EN" "http://www.w3.org/Graphics/SVG/1.1/DTD/svg11.dtd">
<svg width="100%" height="100%" viewBox="0 0 822 822" version="1.1" xmlns="http://www.w3.org/2000/svg" xmlns:xlink="http://www.w3.org/1999/xlink" xml:space="preserve" xmlns:serif="http://www.serif.com/" style="fill-rule:evenodd;clip-rule:evenodd;stroke-linejoin:round;stroke-miterlimit:2;">
    <g transform="matrix(1,0,0,1,-403.041,-229.522)">
        <path d="M1224.25,274.437C1224.25,249.631 1204.14,229.522 1179.33,229.522L447.957,229.522C423.151,229.522 403.041,249.631 403.041,274.437L403.041,1005.81C403.041,1030.62 423.151,1050.73 447.957,1050.73L1179.33,1050.73C1204.14,1050.73 1224.25,1030.62 1224.25,1005.81L1224.25,274.437ZM1179.33,274.437L447.957,274.437L447.957,1005.81L1179.33,1005.81L1179.33,274.437Z" style="fill:rgb(64,64,64);"/>
        <g transform="matrix(1.2476,0,0,0.979661,-200.062,-26.942)">
            <g transform="matrix(387.5,0,0,530.627,638.838,878.841)">
                <path d="M0.141,-0.541C0.158,-0.541 0.172,-0.537 0.185,-0.528C0.198,-0.519 0.204,-0.506 0.204,-0.488L0.204,-0.051C0.204,-0.033 0.198,-0.02 0.185,-0.011C0.172,-0.002 0.158,0.002 0.141,0.002C0.125,0.002 0.111,-0.002 0.098,-0.011C0.085,-0.02 0.078,-0.033 0.078,-0.051L0.078,-0.488C0.078,-0.506 0.085,-0.519 0.098,-0.528C0.111,-0.537 0.125,-0.541 0.141,-0.541ZM0.141,-0.748C0.163,-0.748 0.182,-0.741 0.197,-0.726C0.212,-0.711 0.22,-0.693 0.22,-0.672C0.22,-0.651 0.212,-0.633 0.197,-0.618C0.182,-0.603 0.163,-0.596 0.141,-0.596C0.119,-0.596 0.1,-0.603 0.085,-0.618C0.07,-0.633 0.062,-0.651 0.062,-0.672C0.062,-0.693 0.07,-0.711 0.085,-0.726C0.1,-0.741 0.119,-0.748 0.141,-0.748Z" style="fill:rgb(64,64,64);fill-rule:nonzero;"/>
            </g>
            <g transform="matrix(387.5,0,0,530.627,744.238,878.841)">
                <path d="M0.359,-0.547C0.418,-0.547 0.464,-0.53 0.499,-0.496C0.534,-0.461 0.551,-0.41 0.551,-0.343L0.551,-0.051C0.551,-0.033 0.545,-0.02 0.532,-0.011C0.519,-0.002 0.505,0.002 0.488,0.002C0.472,0.002 0.458,-0.002 0.445,-0.011C0.432,-0.02 0.425,-0.033 0.425,-0.051L0.425,-0.316C0.425,-0.34 0.422,-0.36 0.417,-0.376C0.412,-0.391 0.404,-0.404 0.395,-0.412C0.386,-0.422 0.375,-0.428 0.362,-0.432C0.348,-0.435 0.335,-0.437 0.32,-0.437C0.307,-0.437 0.294,-0.435 0.28,-0.431C0.266,-0.427 0.253,-0.42 0.242,-0.41C0.23,-0.4 0.22,-0.387 0.213,-0.37C0.205,-0.353 0.201,-0.333 0.201,-0.308L0.201,-0.051C0.201,-0.033 0.195,-0.02 0.182,-0.011C0.169,-0.002 0.155,0.002 0.138,0.002C0.122,0.002 0.108,-0.002 0.095,-0.011C0.082,-0.02 0.075,-0.033 0.075,-0.051L0.075,-0.49C0.075,-0.507 0.081,-0.52 0.094,-0.529C0.106,-0.537 0.12,-0.541 0.135,-0.541C0.15,-0.541 0.164,-0.537 0.177,-0.529C0.189,-0.52 0.195,-0.507 0.195,-0.49L0.195,-0.472L0.197,-0.472C0.205,-0.485 0.215,-0.496 0.227,-0.505C0.239,-0.515 0.252,-0.523 0.267,-0.529C0.281,-0.535 0.296,-0.54 0.312,-0.543C0.328,-0.546 0.344,-0.547 0.359,-0.547Z" style="fill:rgb(64,64,64);fill-rule:nonzero;"/>
            </g>
        </g>
    </g>
</svg>
