<?xml version="1.0" encoding="UTF-8" standalone="no"?>
<!DOCTYPE svg PUBLIC "-//W3C//DTD SVG 1.1//EN" "http://www.w3.org/Graphics/SVG/1.1/DTD/svg11.dtd">
<svg width="100%" height="100%" viewBox="0 0 822 822" version="1.1" xmlns="http://www.w3.org/2000/svg" xmlns:xlink="http://www.w3.org/1999/xlink" xml:space="preserve" xmlns:serif="http://www.serif.com/" style="fill-rule:evenodd;clip-rule:evenodd;stroke-linejoin:round;stroke-miterlimit:2;">
    <g transform="matrix(1,0,0,1,-403.041,-229.522)">
        <path d="M1224.25,274.437C1224.25,249.631 1204.14,229.522 1179.33,229.522L447.957,229.522C423.151,229.522 403.041,249.631 403.041,274.437L403.041,1005.81C403.041,1030.62 423.151,1050.73 447.957,1050.73L1179.33,1050.73C1204.14,1050.73 1224.25,1030.62 1224.25,1005.81L1224.25,274.437ZM1179.33,274.437L447.957,274.437L447.957,1005.81L1179.33,1005.81L1179.33,274.437Z" style="fill:rgb(64,64,64);"/>
        <g transform="matrix(1.2476,0,0,0.979661,-200.062,-26.942)">
            <g transform="matrix(387.5,0,0,530.627,591.175,878.841)">
                <path d="M0.353,-0.715C0.396,-0.715 0.434,-0.71 0.465,-0.7C0.496,-0.689 0.521,-0.675 0.541,-0.657C0.561,-0.638 0.576,-0.616 0.586,-0.591C0.595,-0.566 0.6,-0.538 0.6,-0.509L0.6,-0.495C0.6,-0.466 0.595,-0.438 0.585,-0.411C0.575,-0.385 0.56,-0.362 0.539,-0.343C0.518,-0.323 0.493,-0.307 0.462,-0.296C0.431,-0.284 0.395,-0.278 0.353,-0.278L0.209,-0.278L0.209,-0.053C0.209,-0.034 0.203,-0.02 0.19,-0.011C0.177,-0.002 0.162,0.002 0.145,0.002C0.128,0.002 0.113,-0.002 0.1,-0.011C0.087,-0.02 0.081,-0.034 0.081,-0.053L0.081,-0.632C0.081,-0.663 0.087,-0.685 0.1,-0.697C0.112,-0.709 0.134,-0.715 0.166,-0.715L0.353,-0.715ZM0.209,-0.386L0.336,-0.386C0.378,-0.386 0.411,-0.394 0.435,-0.41C0.459,-0.426 0.471,-0.455 0.471,-0.497L0.471,-0.508C0.471,-0.528 0.468,-0.544 0.462,-0.557C0.456,-0.57 0.448,-0.58 0.437,-0.588C0.426,-0.595 0.412,-0.601 0.397,-0.604C0.382,-0.607 0.365,-0.608 0.347,-0.608L0.209,-0.608L0.209,-0.386Z" style="fill:rgb(64,64,64);fill-rule:nonzero;"/>
            </g>
            <g transform="matrix(387.5,0,0,530.627,833.75,878.841)">
                <path d="M0.262,-0.547C0.328,-0.547 0.38,-0.537 0.418,-0.516C0.435,-0.507 0.445,-0.496 0.449,-0.483C0.453,-0.47 0.451,-0.456 0.444,-0.441C0.438,-0.428 0.429,-0.42 0.418,-0.416C0.407,-0.411 0.394,-0.412 0.379,-0.419C0.364,-0.426 0.347,-0.432 0.329,-0.436C0.31,-0.44 0.293,-0.442 0.276,-0.442C0.238,-0.442 0.212,-0.437 0.197,-0.428C0.182,-0.419 0.175,-0.408 0.175,-0.395L0.175,-0.393C0.175,-0.385 0.176,-0.378 0.178,-0.373C0.18,-0.367 0.185,-0.362 0.192,-0.358C0.199,-0.353 0.209,-0.349 0.222,-0.345C0.235,-0.342 0.254,-0.338 0.277,-0.333C0.317,-0.325 0.35,-0.316 0.376,-0.307C0.402,-0.297 0.423,-0.285 0.438,-0.272C0.453,-0.259 0.464,-0.243 0.47,-0.225C0.476,-0.206 0.479,-0.184 0.479,-0.159L0.479,-0.155C0.479,-0.132 0.474,-0.111 0.464,-0.092C0.453,-0.073 0.439,-0.056 0.42,-0.042C0.401,-0.027 0.378,-0.016 0.35,-0.008C0.324,0 0.293,0.004 0.26,0.004C0.221,0.004 0.184,0 0.151,-0.008C0.118,-0.016 0.088,-0.027 0.063,-0.041C0.049,-0.048 0.041,-0.059 0.038,-0.074C0.035,-0.088 0.037,-0.102 0.044,-0.115C0.051,-0.129 0.061,-0.138 0.074,-0.143C0.087,-0.148 0.1,-0.146 0.115,-0.139C0.136,-0.128 0.16,-0.119 0.185,-0.112C0.21,-0.105 0.234,-0.102 0.259,-0.102C0.294,-0.102 0.318,-0.107 0.331,-0.117C0.344,-0.127 0.351,-0.14 0.351,-0.155L0.351,-0.157C0.351,-0.165 0.35,-0.172 0.348,-0.178C0.346,-0.184 0.341,-0.189 0.333,-0.194C0.325,-0.199 0.313,-0.203 0.298,-0.207C0.283,-0.211 0.262,-0.216 0.236,-0.221C0.201,-0.228 0.171,-0.236 0.148,-0.245C0.124,-0.254 0.105,-0.266 0.09,-0.28C0.075,-0.293 0.065,-0.309 0.059,-0.328C0.052,-0.346 0.049,-0.367 0.049,-0.391L0.049,-0.395C0.049,-0.415 0.053,-0.434 0.062,-0.453C0.071,-0.471 0.084,-0.487 0.102,-0.501C0.119,-0.515 0.141,-0.526 0.168,-0.535C0.195,-0.543 0.226,-0.547 0.262,-0.547Z" style="fill:rgb(64,64,64);fill-rule:nonzero;"/>
            </g>
        </g>
    </g>
</svg>
