<?xml version="1.0" encoding="UTF-8" standalone="no"?>
<!DOCTYPE svg PUBLIC "-//W3C//DTD SVG 1.1//EN" "http://www.w3.org/Graphics/SVG/1.1/DTD/svg11.dtd">
<svg width="100%" height="100%" viewBox="0 0 822 822" version="1.1" xmlns="http://www.w3.org/2000/svg" xmlns:xlink="http://www.w3.org/1999/xlink" xml:space="preserve" xmlns:serif="http://www.serif.com/" style="fill-rule:evenodd;clip-rule:evenodd;stroke-linejoin:round;stroke-miterlimit:2;">
    <g transform="matrix(1,0,0,1,-403.041,-229.522)">
        <path d="M1224.25,274.437C1224.25,249.631 1204.14,229.522 1179.33,229.522L447.957,229.522C423.151,229.522 403.041,249.631 403.041,274.437L403.041,1005.81C403.041,1030.62 423.151,1050.73 447.957,1050.73L1179.33,1050.73C1204.14,1050.73 1224.25,1030.62 1224.25,1005.81L1224.25,274.437ZM1179.33,274.437L447.957,274.437L447.957,1005.81L1179.33,1005.81L1179.33,274.437Z" style="fill:rgb(64,64,64);"/>
        <g transform="matrix(1.2476,0,0,0.979661,-200.062,-26.942)">
            <g transform="matrix(387.5,0,0,530.627,565.6,878.841)">
                <path d="M0.576,-0.712C0.592,-0.703 0.602,-0.691 0.607,-0.676C0.612,-0.661 0.608,-0.646 0.597,-0.629L0.416,-0.366L0.602,-0.094C0.613,-0.078 0.617,-0.062 0.614,-0.047C0.611,-0.031 0.601,-0.018 0.584,-0.008C0.569,0.001 0.554,0.004 0.537,0.001C0.52,-0.001 0.507,-0.01 0.497,-0.025L0.332,-0.279L0.166,-0.027C0.157,-0.012 0.144,-0.003 0.128,0C0.111,0.004 0.096,0.002 0.081,-0.007C0.066,-0.016 0.056,-0.029 0.051,-0.043C0.047,-0.059 0.05,-0.074 0.061,-0.089L0.256,-0.368L0.079,-0.625C0.068,-0.641 0.065,-0.657 0.07,-0.674C0.076,-0.69 0.088,-0.703 0.105,-0.712C0.121,-0.721 0.137,-0.723 0.154,-0.72C0.171,-0.716 0.184,-0.706 0.194,-0.69L0.342,-0.454L0.493,-0.691C0.503,-0.706 0.516,-0.716 0.531,-0.72C0.546,-0.723 0.561,-0.721 0.576,-0.712Z" style="fill:rgb(64,64,64);fill-rule:nonzero;"/>
            </g>
            <g transform="matrix(387.5,0,0,530.627,820.963,878.841)">
                <path d="M0.287,-0.439C0.209,-0.439 0.17,-0.386 0.17,-0.281L0.17,-0.261C0.17,-0.207 0.179,-0.167 0.197,-0.141C0.214,-0.116 0.243,-0.103 0.282,-0.103C0.303,-0.103 0.321,-0.107 0.338,-0.114C0.354,-0.121 0.368,-0.13 0.379,-0.142C0.39,-0.155 0.398,-0.169 0.404,-0.186C0.41,-0.202 0.413,-0.219 0.413,-0.238L0.413,-0.33C0.413,-0.343 0.41,-0.356 0.406,-0.369C0.401,-0.382 0.393,-0.393 0.383,-0.404C0.372,-0.414 0.359,-0.422 0.344,-0.429C0.328,-0.436 0.309,-0.439 0.287,-0.439ZM0.474,-0.746C0.491,-0.746 0.505,-0.742 0.518,-0.733C0.531,-0.724 0.537,-0.711 0.537,-0.693L0.537,-0.049C0.537,-0.032 0.531,-0.019 0.519,-0.011C0.506,-0.002 0.492,0.002 0.477,0.002C0.462,0.002 0.448,-0.002 0.436,-0.011C0.424,-0.019 0.418,-0.032 0.418,-0.049L0.418,-0.069L0.415,-0.069C0.4,-0.042 0.379,-0.024 0.35,-0.013C0.321,-0.002 0.29,0.004 0.257,0.004C0.187,0.004 0.134,-0.018 0.099,-0.063C0.063,-0.107 0.045,-0.172 0.045,-0.258L0.045,-0.284C0.045,-0.327 0.05,-0.366 0.061,-0.399C0.072,-0.432 0.087,-0.459 0.106,-0.481C0.125,-0.503 0.149,-0.52 0.175,-0.531C0.203,-0.542 0.233,-0.547 0.266,-0.547C0.288,-0.547 0.307,-0.545 0.324,-0.541C0.34,-0.537 0.354,-0.532 0.366,-0.527C0.377,-0.521 0.387,-0.515 0.394,-0.507C0.401,-0.5 0.407,-0.494 0.411,-0.488L0.411,-0.693C0.411,-0.711 0.418,-0.724 0.431,-0.733C0.444,-0.742 0.458,-0.746 0.474,-0.746Z" style="fill:rgb(64,64,64);fill-rule:nonzero;"/>
            </g>
        </g>
    </g>
</svg>
