<?xml version="1.0" encoding="UTF-8" standalone="no"?>
<!DOCTYPE svg PUBLIC "-//W3C//DTD SVG 1.1//EN" "http://www.w3.org/Graphics/SVG/1.1/DTD/svg11.dtd">
<svg width="100%" height="100%" viewBox="0 0 1934 1190" version="1.1" xmlns="http://www.w3.org/2000/svg" xmlns:xlink="http://www.w3.org/1999/xlink" xml:space="preserve" xmlns:serif="http://www.serif.com/" style="fill-rule:evenodd;clip-rule:evenodd;stroke-linejoin:round;stroke-miterlimit:2;">
    <g transform="matrix(0.357432,0,0,0.44864,-648.025,-1360.8)">
        <g transform="matrix(3497.17,0,0,2786.2,2042.42,4979.04)">
            <path d="M0.532,-0.108C0.491,-0.068 0.425,-0.027 0.334,0.015C0.304,0.101 0.27,0.162 0.232,0.197C0.194,0.233 0.155,0.251 0.114,0.251C0.093,0.251 0.076,0.245 0.064,0.232C0.051,0.219 0.045,0.202 0.045,0.181C0.045,0.117 0.104,0.059 0.221,0.007L0.251,-0.098C0.189,-0.029 0.135,0.005 0.089,0.005C0.064,0.005 0.044,-0.005 0.028,-0.026C0.013,-0.046 0.005,-0.074 0.005,-0.108C0.005,-0.157 0.016,-0.21 0.037,-0.266L0.084,-0.39L0.226,-0.415L0.165,-0.27C0.137,-0.2 0.123,-0.147 0.123,-0.112C0.123,-0.083 0.133,-0.068 0.153,-0.068C0.173,-0.068 0.196,-0.084 0.222,-0.117C0.248,-0.149 0.27,-0.189 0.287,-0.237L0.343,-0.39L0.476,-0.415L0.349,-0.033C0.424,-0.067 0.485,-0.111 0.532,-0.164L0.532,-0.108ZM0.207,0.055C0.167,0.073 0.136,0.093 0.115,0.115C0.093,0.138 0.082,0.16 0.082,0.181C0.082,0.203 0.091,0.214 0.11,0.214C0.146,0.214 0.178,0.161 0.207,0.055Z" style="fill:white;fill-rule:nonzero;"/>
        </g>
        <g transform="matrix(3497.17,0,0,2786.2,3864.43,4979.04)">
            <path d="M0.161,-0.394C0.184,-0.4 0.206,-0.405 0.229,-0.408C0.252,-0.412 0.265,-0.414 0.27,-0.414C0.273,-0.414 0.275,-0.413 0.275,-0.41C0.275,-0.405 0.274,-0.4 0.271,-0.395C0.266,-0.38 0.263,-0.366 0.263,-0.352C0.263,-0.335 0.273,-0.312 0.293,-0.283C0.312,-0.253 0.322,-0.226 0.322,-0.201C0.322,-0.151 0.298,-0.103 0.25,-0.057C0.203,-0.011 0.153,0.012 0.102,0.012C0.08,0.012 0.06,0.006 0.042,-0.005C0.023,-0.017 0.014,-0.03 0.014,-0.043C0.014,-0.051 0.023,-0.066 0.041,-0.087C0.059,-0.109 0.072,-0.12 0.08,-0.12C0.09,-0.12 0.1,-0.107 0.108,-0.08C0.116,-0.053 0.13,-0.04 0.15,-0.04C0.17,-0.04 0.188,-0.049 0.206,-0.068C0.223,-0.086 0.232,-0.106 0.232,-0.127C0.232,-0.147 0.221,-0.175 0.199,-0.209C0.177,-0.243 0.162,-0.272 0.155,-0.295C0.117,-0.234 0.069,-0.172 0.011,-0.108L0,-0.108L0,-0.152C0.08,-0.237 0.133,-0.318 0.161,-0.394Z" style="fill:white;fill-rule:nonzero;"/>
        </g>
        <g transform="matrix(3497.17,0,0,2786.2,5283.44,4979.04)">
            <path d="M0.49,-0.109C0.416,-0.028 0.355,0.012 0.306,0.012C0.283,0.012 0.263,0.004 0.247,-0.012C0.231,-0.029 0.223,-0.049 0.223,-0.073C0.223,-0.085 0.225,-0.102 0.229,-0.125C0.233,-0.147 0.235,-0.16 0.235,-0.163C0.235,-0.178 0.226,-0.186 0.209,-0.186C0.193,-0.187 0.184,-0.193 0.184,-0.206C0.184,-0.217 0.186,-0.225 0.191,-0.229C0.196,-0.234 0.205,-0.236 0.218,-0.236C0.254,-0.237 0.28,-0.244 0.298,-0.258C0.315,-0.272 0.324,-0.288 0.324,-0.307C0.324,-0.32 0.319,-0.331 0.31,-0.34C0.3,-0.349 0.288,-0.353 0.273,-0.353C0.265,-0.353 0.257,-0.352 0.25,-0.35C0.242,-0.348 0.234,-0.345 0.227,-0.341C0.22,-0.337 0.212,-0.332 0.204,-0.325C0.196,-0.318 0.188,-0.31 0.179,-0.3C0.17,-0.291 0.161,-0.28 0.151,-0.267C0.146,-0.26 0.139,-0.228 0.131,-0.17C0.127,-0.141 0.125,-0.113 0.124,-0.088C0.122,-0.065 0.122,-0.038 0.123,-0.009L0.012,0.01C0.008,-0.015 0.006,-0.045 0.006,-0.081C0.006,-0.179 0.019,-0.272 0.045,-0.361C0.072,-0.45 0.115,-0.541 0.175,-0.635C0.221,-0.654 0.262,-0.668 0.295,-0.679C0.329,-0.69 0.348,-0.695 0.352,-0.695C0.36,-0.695 0.368,-0.687 0.375,-0.671C0.382,-0.656 0.386,-0.639 0.386,-0.622C0.386,-0.593 0.377,-0.561 0.357,-0.527C0.338,-0.493 0.308,-0.451 0.268,-0.403C0.296,-0.411 0.319,-0.415 0.337,-0.415C0.367,-0.415 0.392,-0.407 0.411,-0.392C0.43,-0.376 0.44,-0.357 0.44,-0.333C0.44,-0.279 0.391,-0.239 0.294,-0.214C0.332,-0.205 0.351,-0.183 0.351,-0.147L0.348,-0.103C0.348,-0.083 0.357,-0.073 0.376,-0.073C0.389,-0.073 0.404,-0.08 0.42,-0.092C0.437,-0.105 0.46,-0.129 0.49,-0.165L0.49,-0.109ZM0.17,-0.344L0.202,-0.38C0.298,-0.487 0.345,-0.563 0.345,-0.607C0.345,-0.627 0.336,-0.637 0.319,-0.637C0.299,-0.637 0.275,-0.613 0.249,-0.566C0.223,-0.518 0.197,-0.444 0.17,-0.344Z" style="fill:white;fill-rule:nonzero;"/>
        </g>
    </g>
</svg>
