<?xml version="1.0" encoding="UTF-8" standalone="no"?>
<!DOCTYPE svg PUBLIC "-//W3C//DTD SVG 1.1//EN" "http://www.w3.org/Graphics/SVG/1.1/DTD/svg11.dtd">
<svg width="100%" height="100%" viewBox="0 0 1934 1190" version="1.1" xmlns="http://www.w3.org/2000/svg" xmlns:xlink="http://www.w3.org/1999/xlink" xml:space="preserve" xmlns:serif="http://www.serif.com/" style="fill-rule:evenodd;clip-rule:evenodd;stroke-linejoin:round;stroke-miterlimit:2;">
    <g transform="matrix(0.357432,0,0,0.44864,-648.025,-1360.8)">
        <g transform="matrix(3497.17,0,0,2786.2,2042.42,4979.04)">
            <path d="M0.532,-0.108C0.491,-0.068 0.425,-0.027 0.334,0.015C0.304,0.101 0.27,0.162 0.232,0.197C0.194,0.233 0.155,0.251 0.114,0.251C0.093,0.251 0.076,0.245 0.064,0.232C0.051,0.219 0.045,0.202 0.045,0.181C0.045,0.117 0.104,0.059 0.221,0.007L0.251,-0.098C0.189,-0.029 0.135,0.005 0.089,0.005C0.064,0.005 0.044,-0.005 0.028,-0.026C0.013,-0.046 0.005,-0.074 0.005,-0.108C0.005,-0.157 0.016,-0.21 0.037,-0.266L0.084,-0.39L0.226,-0.415L0.165,-0.27C0.137,-0.2 0.123,-0.147 0.123,-0.112C0.123,-0.083 0.133,-0.068 0.153,-0.068C0.173,-0.068 0.196,-0.084 0.222,-0.117C0.248,-0.149 0.27,-0.189 0.287,-0.237L0.343,-0.39L0.476,-0.415L0.349,-0.033C0.424,-0.067 0.485,-0.111 0.532,-0.164L0.532,-0.108ZM0.207,0.055C0.167,0.073 0.136,0.093 0.115,0.115C0.093,0.138 0.082,0.16 0.082,0.181C0.082,0.203 0.091,0.214 0.11,0.214C0.146,0.214 0.178,0.161 0.207,0.055Z" style="fill-rule:nonzero;"/>
        </g>
        <g transform="matrix(3497.17,0,0,2786.2,3864.43,4979.04)">
            <path d="M0.161,-0.394C0.184,-0.4 0.206,-0.405 0.229,-0.408C0.252,-0.412 0.265,-0.414 0.27,-0.414C0.273,-0.414 0.275,-0.413 0.275,-0.41C0.275,-0.405 0.274,-0.4 0.271,-0.395C0.266,-0.38 0.263,-0.366 0.263,-0.352C0.263,-0.335 0.273,-0.312 0.293,-0.283C0.312,-0.253 0.322,-0.226 0.322,-0.201C0.322,-0.151 0.298,-0.103 0.25,-0.057C0.203,-0.011 0.153,0.012 0.102,0.012C0.08,0.012 0.06,0.006 0.042,-0.005C0.023,-0.017 0.014,-0.03 0.014,-0.043C0.014,-0.051 0.023,-0.066 0.041,-0.087C0.059,-0.109 0.072,-0.12 0.08,-0.12C0.09,-0.12 0.1,-0.107 0.108,-0.08C0.116,-0.053 0.13,-0.04 0.15,-0.04C0.17,-0.04 0.188,-0.049 0.206,-0.068C0.223,-0.086 0.232,-0.106 0.232,-0.127C0.232,-0.147 0.221,-0.175 0.199,-0.209C0.177,-0.243 0.162,-0.272 0.155,-0.295C0.117,-0.234 0.069,-0.172 0.011,-0.108L0,-0.108L0,-0.152C0.08,-0.237 0.133,-0.318 0.161,-0.394Z" style="fill-rule:nonzero;"/>
        </g>
        <g transform="matrix(3497.17,0,0,2786.2,5283.44,4979.04)">
            <path d="M0.49,-0.109C0.416,-0.028 0.355,0.012 0.306,0.012C0.283,0.012 0.263,0.004 0.247,-0.012C0.231,-0.029 0.223,-0.049 0.223,-0.073C0.223,-0.085 0.225,-0.102 0.229,-0.125C0.233,-0.147 0.235,-0.16 0.235,-0.163C0.235,-0.178 0.226,-0.186 0.209,-0.186C0.193,-0.187 0.184,-0.193 0.184,-0.206C0.184,-0.217 0.186,-0.225 0.191,-0.229C0.196,-0.234 0.205,-0.236 0.218,-0.236C0.254,-0.237 0.28,-0.244 0.298,-0.258C0.315,-0.272 0.324,-0.288 0.324,-0.307C0.324,-0.32 0.319,-0.331 0.31,-0.34C0.3,-0.349 0.288,-0.353 0.273,-0.353C0.265,-0.353 0.257,-0.352 0.25,-0.35C0.242,-0.348 0.234,-0.345 0.227,-0.341C0.22,-0.337 0.212,-0.332 0.204,-0.325C0.196,-0.318 0.188,-0.31 0.179,-0.3C0.17,-0.291 0.161,-0.28 0.151,-0.267C0.146,-0.26 0.139,-0.228 0.131,-0.17C0.127,-0.141 0.125,-0.113 0.124,-0.088C0.122,-0.065 0.122,-0.038 0.123,-0.009L0.012,0.01C0.008,-0.015 0.006,-0.045 0.006,-0.081C0.006,-0.179 0.019,-0.272 0.045,-0.361C0.072,-0.45 0.115,-0.541 0.175,-0.635C0.221,-0.654 0.262,-0.668 0.295,-0.679C0.329,-0.69 0.348,-0.695 0.352,-0.695C0.36,-0.695 0.368,-0.687 0.375,-0.671C0.382,-0.656 0.386,-0.639 0.386,-0.622C0.386,-0.593 0.377,-0.561 0.357,-0.527C0.338,-0.493 0.308,-0.451 0.268,-0.403C0.296,-0.411 0.319,-0.415 0.337,-0.415C0.367,-0.415 0.392,-0.407 0.411,-0.392C0.43,-0.376 0.44,-0.357 0.44,-0.333C0.44,-0.279 0.391,-0.239 0.294,-0.214C0.332,-0.205 0.351,-0.183 0.351,-0.147L0.348,-0.103C0.348,-0.083 0.357,-0.073 0.376,-0.073C0.389,-0.073 0.404,-0.08 0.42,-0.092C0.437,-0.105 0.46,-0.129 0.49,-0.165L0.49,-0.109ZM0.17,-0.344L0.202,-0.38C0.298,-0.487 0.345,-0.563 0.345,-0.607C0.345,-0.627 0.336,-0.637 0.319,-0.637C0.299,-0.637 0.275,-0.613 0.249,-0.566C0.223,-0.518 0.197,-0.444 0.17,-0.344Z" style="fill-rule:nonzero;"/>
        </g>
    </g>
    <g transform="matrix(1,0,0,1,-2762.03,-6899.59)">
        <g transform="matrix(0.373551,0,0,0.607936,1626.2,3382.6)">
            <rect x="4870.32" y="7412.79" width="3129.1" height="326.297" style="fill:rgb(166,177,225);"/>
        </g>
        <g transform="matrix(0.203181,0,0,0.0413994,3111.79,7808)">
            <g transform="matrix(615.214,0,0,3019.37,2138.04,5374.75)">
                <path d="M0.48,-0.603L0.317,0.036L0.218,0.036L0.024,-0.721L0.112,-0.721L0.271,-0.075L0.435,-0.721L0.526,-0.721L0.691,-0.069L0.849,-0.721L0.933,-0.721L0.742,0.036L0.641,0.036L0.48,-0.603Z" style="fill:white;fill-rule:nonzero;"/>
            </g>
            <g transform="matrix(615.214,0,0,3019.37,2760.03,5374.75)">
                <path d="M0.553,0.037L0.084,0.037L0.084,-0.721L0.553,-0.721L0.553,-0.646L0.172,-0.646L0.172,-0.414L0.526,-0.414L0.526,-0.34L0.172,-0.34L0.172,-0.04L0.553,-0.04L0.553,0.037Z" style="fill:white;fill-rule:nonzero;"/>
            </g>
            <g transform="matrix(615.214,0,0,3019.37,3157.45,5374.75)">
                <path d="M0.314,-0.647L0.172,-0.647L0.172,-0.41L0.304,-0.41C0.353,-0.41 0.391,-0.419 0.42,-0.438C0.448,-0.457 0.462,-0.489 0.462,-0.535C0.462,-0.575 0.45,-0.604 0.425,-0.621C0.4,-0.638 0.363,-0.647 0.314,-0.647ZM0.311,-0.337L0.172,-0.337L0.172,-0.039L0.329,-0.039C0.383,-0.039 0.424,-0.052 0.453,-0.079C0.481,-0.106 0.495,-0.142 0.495,-0.187C0.495,-0.235 0.48,-0.272 0.45,-0.298C0.42,-0.324 0.374,-0.337 0.311,-0.337ZM0.34,0.036L0.084,0.036L0.084,-0.721L0.337,-0.721C0.372,-0.721 0.404,-0.717 0.431,-0.708C0.458,-0.699 0.48,-0.686 0.499,-0.671C0.518,-0.656 0.532,-0.638 0.541,-0.617C0.55,-0.596 0.555,-0.574 0.555,-0.551C0.555,-0.509 0.543,-0.473 0.519,-0.443C0.495,-0.412 0.462,-0.391 0.42,-0.379L0.42,-0.377C0.446,-0.374 0.469,-0.367 0.491,-0.356C0.511,-0.345 0.53,-0.332 0.545,-0.316C0.56,-0.299 0.571,-0.28 0.58,-0.258C0.588,-0.236 0.592,-0.212 0.592,-0.186C0.592,-0.159 0.587,-0.132 0.577,-0.105C0.567,-0.078 0.552,-0.055 0.531,-0.034C0.509,-0.013 0.483,0.004 0.452,0.017C0.42,0.03 0.383,0.036 0.34,0.036Z" style="fill:white;fill-rule:nonzero;"/>
            </g>
            <g transform="matrix(615.214,0,0,3019.37,3742.52,5374.75)">
                <path d="M0.269,-0.647L0.172,-0.647L0.172,-0.039L0.264,-0.039C0.365,-0.039 0.444,-0.065 0.5,-0.116C0.557,-0.167 0.585,-0.243 0.585,-0.344C0.585,-0.546 0.48,-0.647 0.269,-0.647ZM0.262,0.036L0.084,0.036L0.084,-0.721L0.27,-0.721C0.544,-0.721 0.681,-0.596 0.681,-0.346C0.681,-0.28 0.67,-0.223 0.648,-0.175C0.626,-0.127 0.596,-0.087 0.558,-0.056C0.52,-0.025 0.475,-0.002 0.425,0.013C0.374,0.028 0.32,0.036 0.262,0.036Z" style="fill:white;fill-rule:nonzero;"/>
            </g>
            <g transform="matrix(615.214,0,0,3019.37,4216.85,5374.75)">
                <path d="M0.553,0.037L0.084,0.037L0.084,-0.721L0.553,-0.721L0.553,-0.646L0.172,-0.646L0.172,-0.414L0.526,-0.414L0.526,-0.34L0.172,-0.34L0.172,-0.04L0.553,-0.04L0.553,0.037Z" style="fill:white;fill-rule:nonzero;"/>
            </g>
            <g transform="matrix(615.214,0,0,3019.37,4614.28,5374.75)">
                <path d="M0.058,-0.021L0.058,-0.118C0.058,-0.122 0.059,-0.125 0.061,-0.126C0.063,-0.127 0.066,-0.125 0.069,-0.122C0.1,-0.09 0.131,-0.067 0.163,-0.054C0.195,-0.041 0.231,-0.034 0.272,-0.034C0.327,-0.034 0.368,-0.044 0.395,-0.065C0.422,-0.086 0.436,-0.119 0.436,-0.165C0.436,-0.182 0.433,-0.197 0.427,-0.211C0.42,-0.224 0.411,-0.237 0.4,-0.248C0.388,-0.259 0.374,-0.27 0.358,-0.28C0.341,-0.29 0.323,-0.3 0.303,-0.309L0.232,-0.34C0.207,-0.351 0.184,-0.362 0.163,-0.375C0.142,-0.388 0.125,-0.402 0.11,-0.418C0.095,-0.434 0.084,-0.453 0.076,-0.473C0.068,-0.495 0.064,-0.519 0.064,-0.546C0.064,-0.577 0.07,-0.605 0.083,-0.628C0.096,-0.651 0.113,-0.671 0.135,-0.686C0.156,-0.701 0.182,-0.713 0.211,-0.721C0.239,-0.728 0.271,-0.732 0.304,-0.732C0.336,-0.732 0.369,-0.728 0.403,-0.72C0.437,-0.711 0.468,-0.697 0.495,-0.678L0.495,-0.604C0.495,-0.599 0.494,-0.596 0.492,-0.595C0.489,-0.594 0.486,-0.595 0.483,-0.598C0.456,-0.617 0.429,-0.632 0.402,-0.641C0.375,-0.65 0.343,-0.655 0.308,-0.655C0.261,-0.655 0.224,-0.647 0.197,-0.629C0.17,-0.613 0.157,-0.586 0.157,-0.549C0.157,-0.532 0.16,-0.517 0.166,-0.504C0.172,-0.491 0.18,-0.479 0.191,-0.469C0.202,-0.458 0.214,-0.449 0.229,-0.441C0.244,-0.433 0.259,-0.426 0.276,-0.42L0.348,-0.388C0.409,-0.361 0.456,-0.33 0.487,-0.297C0.518,-0.263 0.533,-0.221 0.533,-0.171C0.533,-0.134 0.527,-0.102 0.514,-0.075C0.501,-0.048 0.484,-0.025 0.461,-0.008C0.438,0.01 0.41,0.023 0.378,0.032C0.345,0.041 0.309,0.045 0.27,0.045C0.226,0.045 0.187,0.04 0.152,0.03C0.117,0.02 0.085,0.003 0.058,-0.021Z" style="fill:white;fill-rule:nonzero;"/>
            </g>
            <g transform="matrix(615.214,0,0,3019.37,5009.25,5374.75)">
                <rect x="0.085" y="-0.721" width="0.088" height="0.757" style="fill:white;fill-rule:nonzero;"/>
            </g>
            <g transform="matrix(615.214,0,0,3019.37,5191.97,5374.75)">
                <path d="M0.632,-0.57C0.607,-0.598 0.576,-0.62 0.54,-0.634C0.504,-0.65 0.465,-0.657 0.423,-0.657C0.382,-0.657 0.344,-0.65 0.31,-0.636C0.275,-0.622 0.244,-0.602 0.218,-0.576C0.192,-0.549 0.172,-0.517 0.157,-0.478C0.142,-0.439 0.135,-0.396 0.135,-0.347C0.135,-0.297 0.141,-0.252 0.153,-0.213C0.165,-0.174 0.183,-0.14 0.207,-0.113C0.232,-0.085 0.262,-0.064 0.299,-0.049C0.335,-0.034 0.377,-0.027 0.426,-0.027C0.459,-0.027 0.486,-0.031 0.506,-0.04C0.528,-0.048 0.545,-0.059 0.56,-0.074L0.56,-0.275L0.386,-0.275L0.386,-0.35L0.65,-0.35L0.65,-0.021C0.609,0.002 0.568,0.018 0.529,0.029C0.489,0.04 0.45,0.045 0.411,0.045C0.351,0.045 0.298,0.035 0.252,0.016C0.206,-0.003 0.168,-0.029 0.137,-0.063C0.106,-0.097 0.082,-0.138 0.067,-0.186C0.051,-0.234 0.043,-0.287 0.043,-0.345C0.043,-0.405 0.052,-0.459 0.071,-0.506C0.09,-0.553 0.116,-0.594 0.149,-0.627C0.182,-0.66 0.221,-0.686 0.267,-0.704C0.312,-0.721 0.362,-0.73 0.416,-0.73C0.462,-0.73 0.504,-0.725 0.541,-0.716C0.578,-0.706 0.613,-0.689 0.645,-0.666L0.645,-0.574C0.645,-0.569 0.644,-0.567 0.641,-0.566C0.638,-0.565 0.635,-0.567 0.632,-0.57Z" style="fill:white;fill-rule:nonzero;"/>
            </g>
            <g transform="matrix(615.214,0,0,3019.37,5659.53,5374.75)">
                <path d="M0.22,-0.721L0.509,-0.135L0.541,-0.058L0.54,-0.137L0.54,-0.721L0.623,-0.721L0.623,0.036L0.499,0.036L0.198,-0.578L0.166,-0.65L0.167,-0.571L0.167,0.036L0.085,0.036L0.085,-0.721L0.22,-0.721Z" style="fill:white;fill-rule:nonzero;"/>
            </g>
            <g transform="matrix(615.214,0,0,3019.37,6127.09,5374.75)">
                <path d="M0.553,0.037L0.084,0.037L0.084,-0.721L0.553,-0.721L0.553,-0.646L0.172,-0.646L0.172,-0.414L0.526,-0.414L0.526,-0.34L0.172,-0.34L0.172,-0.04L0.553,-0.04L0.553,0.037Z" style="fill:white;fill-rule:nonzero;"/>
            </g>
            <g transform="matrix(615.214,0,0,3019.37,6524.52,5374.75)">
                <path d="M0.402,-0.287L0.589,0.036L0.477,0.036L0.32,-0.271L0.173,-0.271L0.173,0.036L0.085,0.036L0.084,-0.721L0.299,-0.721C0.386,-0.721 0.451,-0.702 0.496,-0.663C0.541,-0.624 0.563,-0.571 0.563,-0.506C0.563,-0.445 0.549,-0.397 0.522,-0.362C0.494,-0.327 0.454,-0.302 0.402,-0.287ZM0.473,-0.504C0.473,-0.529 0.469,-0.551 0.46,-0.569C0.451,-0.587 0.44,-0.602 0.425,-0.614C0.409,-0.625 0.392,-0.634 0.373,-0.639C0.353,-0.644 0.332,-0.647 0.309,-0.647L0.172,-0.647L0.172,-0.341L0.277,-0.341C0.31,-0.341 0.338,-0.344 0.363,-0.349C0.387,-0.354 0.407,-0.363 0.424,-0.376C0.44,-0.388 0.452,-0.405 0.461,-0.426C0.469,-0.447 0.473,-0.473 0.473,-0.504Z" style="fill:white;fill-rule:nonzero;"/>
            </g>
        </g>
    </g>
</svg>
